<?xml version="1.0" standalone="no"?>
<!DOCTYPE svg PUBLIC "-//W3C//DTD SVG 20010904//EN"
 "http://www.w3.org/TR/2001/REC-SVG-20010904/DTD/svg10.dtd">
<svg version="1.0" xmlns="http://www.w3.org/2000/svg"
 width="512.000000pt" height="512.000000pt" viewBox="0 0 512.000000 512.000000"
 preserveAspectRatio="xMidYMid meet">
<metadata>
Created by potrace 1.14, written by Peter Selinger 2001-2017
</metadata>
<g transform="translate(0.000000,512.000000) scale(0.100000,-0.100000)"
fill="#000000" stroke="none">
<path d="M321 4870 c-74 -49 -141 -99 -148 -112 -16 -30 -17 -205 0 -237 6
-13 30 -33 52 -46 22 -12 112 -66 200 -119 l160 -96 237 -237 c131 -130 235
-239 233 -241 -2 -2 -30 9 -62 24 -50 24 -71 28 -148 28 -83 1 -96 -2 -157
-32 -123 -60 -239 -202 -274 -334 -14 -57 -12 -189 4 -230 10 -24 7 -31 -26
-72 l-37 -45 -33 19 c-18 11 -35 20 -36 20 -7 0 -45 -97 -51 -133 -4 -21 -9
-167 -10 -325 l-2 -287 -32 -59 c-43 -82 -41 -115 11 -142 37 -19 74 -13 196
32 154 58 228 120 286 243 31 65 31 68 34 251 2 102 5 186 6 188 2 1 22 -4 44
-12 23 -9 42 -13 42 -11 0 3 12 0 26 -5 23 -9 124 -20 219 -24 44 -2 75 -13
75 -27 0 -5 -49 -74 -108 -154 -67 -90 -114 -162 -123 -192 -15 -47 -17 -155
-6 -358 l4 -70 -41 -14 c-59 -20 -121 -65 -155 -114 -61 -89 -60 -72 -61 -767
0 -349 -4 -637 -8 -641 -4 -3 -41 -18 -82 -33 -112 -40 -156 -97 -146 -189 7
-60 22 -85 72 -124 l37 -28 270 -3 269 -3 66 31 65 31 29 -28 c27 -26 35 -28
109 -28 130 0 119 -67 119 703 l0 652 80 0 80 0 0 -40 0 -40 549 0 550 0 218
-131 c120 -73 234 -141 253 -152 19 -10 150 -87 290 -170 140 -82 397 -234
571 -336 l317 -186 -15 -29 c-22 -43 -15 -228 10 -253 16 -16 44 -18 282 -21
361 -4 354 -8 319 213 -8 52 -48 146 -88 209 -37 57 -76 98 -231 241 -60 55
-137 127 -172 159 -35 32 -72 67 -84 77 -11 9 -69 63 -129 119 -60 56 -118
109 -128 118 -10 10 -64 58 -118 109 -54 50 -135 120 -179 154 -44 35 -82 66
-85 69 -3 3 -149 121 -326 261 -265 212 -328 268 -365 320 -77 110 -130 170
-357 404 -294 302 -347 371 -512 655 -75 130 -191 305 -240 364 -143 171 -207
237 -391 401 -25 22 -85 76 -134 121 -50 45 -187 168 -305 274 -118 106 -253
227 -299 269 -46 42 -93 84 -105 94 -12 10 -54 49 -94 85 -76 69 -93 80 -127
81 -11 1 -80 -39 -154 -89z m1157 -1525 c28 -51 28 -55 13 -70 -16 -14 -21
-12 -59 17 -23 18 -42 36 -42 41 0 11 42 67 51 67 4 0 21 -25 37 -55z m97
-1071 c67 -18 145 -17 227 5 l68 17 25 -75 c14 -42 25 -91 25 -109 l0 -32
-240 0 -240 0 0 95 c0 93 0 95 28 109 15 9 34 13 42 10 8 -4 38 -12 65 -20z"/>
</g>
</svg>
